PathFileType	4	(X/Y/Z)	markers.trc
DataRate	CameraRate	NumFrames	NumMarkers	Units	OrigDataRate	OrigDataStartFrame	OrigNumFrames
59.94	59.94	14	12	m	59.94	46	137
Frame#	Time	LEFT_SHOULDER			RIGHT_SHOULDER			LEFT_HIP			RIGHT_HIP			LEFT_KNEE			RIGHT_KNEE			LEFT_ANKLE			RIGHT_ANKLE			LEFT_HEEL			RIGHT_HEEL			LEFT_FOOT_INDEX			RIGHT_FOOT_INDEX		
		X1	Y1	Z1	X2	Y2	Z2	X3	Y3	Z3	X4	Y4	Z4	X5	Y5	Z5	X6	Y6	Z6	X7	Y7	Z7	X8	Y8	Z8	X9	Y9	Z9	X10	Y10	Z10	X11	Y11	Z11	X12	Y12	Z12

160	2.652650	6.560855	2.616891	0.000000	7.068160	2.587763	0.000000	6.673363	3.334186	0.000000	6.953918	3.340037	0.000000	6.736623	3.867426	0.000000	6.988396	3.864832	0.000000	6.746018	4.463376	0.000000	6.961156	4.159382	0.000000	6.773660	4.547663	0.000000	6.939909	4.167039	0.000000	6.702694	4.636003	0.000000	6.965185	4.377340	0.000000
161	2.669333	6.554100	2.614141	0.000000	7.063545	2.583753	0.000000	6.665309	3.335017	0.000000	6.947736	3.341208	0.000000	6.734173	3.870924	0.000000	6.988627	3.881840	0.000000	6.745971	4.462789	0.000000	6.962121	4.151778	0.000000	6.773839	4.547136	0.000000	6.940176	4.155077	0.000000	6.703179	4.639130	0.000000	6.965783	4.379381	0.000000
162	2.686017	6.547346	2.609771	0.000000	7.059212	2.578253	0.000000	6.658590	3.335609	0.000000	6.942546	3.341986	0.000000	6.731586	3.874502	0.000000	6.988678	3.898407	0.000000	6.745894	4.461688	0.000000	6.962409	4.145608	0.000000	6.773930	4.546417	0.000000	6.939465	4.145439	0.000000	6.703274	4.641434	0.000000	6.966065	4.383178	0.000000
163	2.702700	6.540606	2.603794	0.000000	7.055257	2.571451	0.000000	6.653195	3.336051	0.000000	6.938500	3.342582	0.000000	6.728742	3.878587	0.000000	6.988345	3.913236	0.000000	6.745795	4.460535	0.000000	6.961819	4.141889	0.000000	6.773920	4.545569	0.000000	6.937723	4.139343	0.000000	6.702963	4.643640	0.000000	6.965907	4.389539	0.000000
164	2.719383	6.533977	2.596419	0.000000	7.051753	2.563745	0.000000	6.648862	3.336384	0.000000	6.935504	3.343134	0.000000	6.725559	3.883545	0.000000	6.987390	3.925265	0.000000	6.745667	4.459646	0.000000	6.960207	4.141761	0.000000	6.773802	4.544612	0.000000	6.934972	4.138062	0.000000	6.702227	4.645950	0.000000	6.965222	4.399234	0.000000
165	2.736067	6.527622	2.588010	0.000000	7.048706	2.555611	0.000000	6.645239	3.336623	0.000000	6.933313	3.343693	0.000000	6.722053	3.889629	0.000000	6.985565	3.933902	0.000000	6.745496	4.459212	0.000000	6.957513	4.146511	0.000000	6.773574	4.543549	0.000000	6.931294	4.143030	0.000000	6.701057	4.648201	0.000000	6.963974	4.412791	0.000000
166	2.752750	6.521618	2.578977	0.000000	7.046045	2.547471	0.000000	6.641990	3.336767	0.000000	6.931641	3.344224	0.000000	6.718345	3.896858	0.000000	6.982647	3.939065	0.000000	6.745262	4.459303	0.000000	6.953799	4.157491	0.000000	6.773259	4.542390	0.000000	6.926855	4.155863	0.000000	6.699475	4.650126	0.000000	6.962185	4.430390	0.000000
167	2.769433	6.515847	2.569712	0.000000	7.043632	2.539617	0.000000	6.638831	3.336802	0.000000	6.930222	3.344642	0.000000	6.714614	3.904897	0.000000	6.978512	3.941070	0.000000	6.744956	4.459883	0.000000	6.949307	4.175783	0.000000	6.772905	4.541165	0.000000	6.921948	4.178050	0.000000	6.697544	4.651538	0.000000	6.959918	4.451935	0.000000
168	2.786117	6.510110	2.560556	0.000000	7.041296	2.532209	0.000000	6.635542	3.336708	0.000000	6.928829	3.344856	0.000000	6.711058	3.913153	0.000000	6.973227	3.940511	0.000000	6.744574	4.460808	0.000000	6.944460	4.201731	0.000000	6.772580	4.539928	0.000000	6.916986	4.210300	0.000000	6.695386	4.652399	0.000000	6.957234	4.477247	0.000000
169	2.802800	6.504328	2.551796	0.000000	7.038895	2.525355	0.000000	6.632002	3.336457	0.000000	6.927306	3.344789	0.000000	6.707845	3.921050	0.000000	6.967097	3.938158	0.000000	6.744108	4.461848	0.000000	6.939764	4.234723	0.000000	6.772335	4.538746	0.000000	6.912375	4.251970	0.000000	6.693180	4.652786	0.000000	6.954172	4.506215	0.000000
170	2.819483	6.498608	2.543687	0.000000	7.036353	2.519179	0.000000	6.628222	3.336025	0.000000	6.925597	3.344381	0.000000	6.705073	3.928192	0.000000	6.960592	3.934905	0.000000	6.743545	4.462765	0.000000	6.935646	4.273448	0.000000	6.772192	4.537718	0.000000	6.908361	4.301161	0.000000	6.691127	4.652830	0.000000	6.950765	4.538780	0.000000
171	2.836167	6.493121	2.536473	0.000000	7.033692	2.513819	0.000000	6.624319	3.335398	0.000000	6.923739	3.343600	0.000000	6.702743	3.934294	0.000000	6.954177	3.931685	0.000000	6.742880	4.463406	0.000000	6.932337	4.316369	0.000000	6.772143	4.537020	0.000000	6.904966	4.355385	0.000000	6.689379	4.652675	0.000000	6.947076	4.574741	0.000000
172	2.852850	6.487927	2.530334	0.000000	7.031018	2.509378	0.000000	6.620437	3.334593	0.000000	6.921816	3.342465	0.000000	6.700774	3.939115	0.000000	6.948190	3.929341	0.000000	6.742158	4.463734	0.000000	6.929856	4.361939	0.000000	6.772163	4.536888	0.000000	6.902012	4.412096	0.000000	6.687999	4.652439	0.000000	6.943198	4.613474	0.000000
173	2.869533	6.482916	2.525336	0.000000	7.028487	2.505874	0.000000	6.616664	3.333694	0.000000	6.919905	3.341067	0.000000	6.699068	3.942553	0.000000	6.942826	3.928550	0.000000	6.741486	4.463813	0.000000	6.928065	4.408535	0.000000	6.772223	4.537532	0.000000	6.899201	4.468880	0.000000	6.686987	4.652201	0.000000	6.939230	4.653734	0.000000
